<?xml version="1.0" encoding="UTF-8"?>
<svg xmlns="http://www.w3.org/2000/svg" xmlns:xlink="http://www.w3.org/1999/xlink" viewBox="0 0 33 33" width="33px" height="33px">
<g id="surface170977173">
<path style=" stroke:none;fill-rule:nonzero;fill:rgb(93.725491%,60.392159%,10.196079%);fill-opacity:1;" d="M 16.5 0.695312 C 16.355469 0.695312 16.214844 0.738281 16.089844 0.832031 L 0.910156 12.679688 C 0.628906 12.902344 0.574219 13.316406 0.800781 13.609375 C 1.023438 13.890625 1.4375 13.945312 1.730469 13.722656 L 2.640625 13.007812 L 2.640625 30.359375 C 2.640625 30.722656 2.9375 31.019531 3.300781 31.019531 L 12.539062 31.019531 L 12.539062 19.140625 L 20.460938 19.140625 L 20.460938 31.019531 L 29.699219 31.019531 C 30.0625 31.019531 30.359375 30.722656 30.359375 30.359375 L 30.359375 13.007812 L 31.269531 13.722656 C 31.398438 13.8125 31.535156 13.859375 31.679688 13.859375 C 31.878906 13.859375 32.070312 13.773438 32.199219 13.609375 C 32.425781 13.316406 32.371094 12.902344 32.089844 12.679688 L 16.910156 0.832031 C 16.785156 0.738281 16.644531 0.695312 16.5 0.695312 Z M 23.101562 3.300781 L 23.101562 3.992188 L 27.058594 7.082031 L 27.058594 3.300781 Z M 23.101562 3.300781 "/>
</g>
</svg>
